<?xml version="1.0" encoding="iso-8859-1"?>
<!-- Generator: Adobe Illustrator 19.0.0, SVG Export Plug-In . SVG Version: 6.00 Build 0)  -->
<svg version="1.1" id="Capa_1" xmlns="http://www.w3.org/2000/svg" xmlns:xlink="http://www.w3.org/1999/xlink" x="0px" y="0px"
	 viewBox="0 0 496 496" style="enable-background:new 0 0 496 496;" xml:space="preserve">
<g>
	<g>
		<g>
			<path d="M496,368V0H112v80H56c-22.056,0-40,17.944-40,40v280H0v56c0,22.056,17.944,40,40,40h416c22.056,0,40-17.944,40-40v-56
				h-16v-32H496z M128,16h352v48H128V16z M416,368v32H304v16h16v8c0,4.408-3.592,8-8,8H184c-4.408,0-8-3.592-8-8v-8h112v-16H80V144
				h32v224H416z M32,120c0-13.232,10.768-24,24-24h56v32H80c-8.824,0-16,7.176-16,16v256H32V120z M480,456c0,13.232-10.768,24-24,24
				H40c-13.232,0-24-10.768-24-24v-40h144v8c0,13.232,10.768,24,24,24h128c13.232,0,24-10.768,24-24v-8h144V456z M432,400v-32h32v32
				H432z M128,352V80h352v272H128z"/>
			<rect x="64" y="448" width="16" height="16"/>
			<rect x="96" y="448" width="16" height="16"/>
			<rect x="128" y="448" width="16" height="16"/>
			<rect x="144" y="32" width="16" height="16"/>
			<rect x="176" y="32" width="16" height="16"/>
			<rect x="208" y="32" width="16" height="16"/>
			<path d="M320,96H144v208h144v32h176V128H320V96z M160,288V112h144v176H160z M448,144v176H304v-16h16V144H448z"/>
			<rect x="176" y="128" width="16" height="16"/>
			<rect x="208" y="128" width="80" height="16"/>
			<rect x="176" y="160" width="112" height="16"/>
			<rect x="272" y="256" width="16" height="16"/>
			<rect x="176" y="256" width="80" height="16"/>
			<rect x="176" y="224" width="112" height="16"/>
			<rect x="176" y="192" width="112" height="16"/>
			<rect x="336" y="160" width="16" height="16"/>
			<rect x="368" y="160" width="64" height="16"/>
			<rect x="336" y="192" width="96" height="16"/>
			<rect x="416" y="288" width="16" height="16"/>
			<rect x="336" y="288" width="64" height="16"/>
			<rect x="336" y="256" width="96" height="16"/>
			<rect x="336" y="224" width="96" height="16"/>
		</g>
	</g>
</g>
<g>
</g>
<g>
</g>
<g>
</g>
<g>
</g>
<g>
</g>
<g>
</g>
<g>
</g>
<g>
</g>
<g>
</g>
<g>
</g>
<g>
</g>
<g>
</g>
<g>
</g>
<g>
</g>
<g>
</g>
</svg>
