<svg id="Layer_2" data-name="Layer 2" xmlns="http://www.w3.org/2000/svg" xmlns:xlink="http://www.w3.org/1999/xlink" viewBox="0 0 3408 1313.26"><defs><style>.cls-1,.cls-6{fill:none;}.cls-2,.cls-5,.cls-7{fill:#fff;}.cls-3{clip-path:url(#clip-path);}.cls-4,.cls-5,.cls-7{isolation:isolate;}.cls-5{font-size:53.3px;font-family:Gotham Light;}.cls-6{stroke:#fff;stroke-miterlimit:10;stroke-width:4px;}.cls-7{font-size:400px;font-family:Fira Sans;font-weight:700;font-style:italic;letter-spacing:5px;}.cls-8{letter-spacing:1px;}</style><clipPath id="clip-path"><path class="cls-1" d="M221.38,680.27A211.62,211.62,0,0,0,194.32,743c-32.2,113.81,31.26,247.25,149.52,300.56,105.16,50.69,240.61,37,323.3-38.29a245.43,245.43,0,0,0,84.59-166.8c-0.65-1.56-1.34-3.07-2.11-4.53s-1.68-3-2.61-4.47a48.22,48.22,0,0,0-3-4.19c-1.07-1.35-2.18-2.65-3.36-3.91s-2.42-2.47-3.73-3.64-2.66-2.3-4.08-3.39-2.89-2.14-4.43-3.15-3.12-2-4.77-2.92-3.34-1.83-5.09-2.7a120.33,120.33,0,0,0-11.14-4.79q-5.89-2.2-12.35-4.06t-13.5-3.42q-7-1.56-14.57-2.88T651.41,788q-8-1.11-16.5-2.07c-11.31-1.29-23.2-2.4-35.57-3.46s-25.24-2.08-38.51-3.17-26.92-2.26-40.89-3.63q-10.48-1-21.17-2.22t-21.55-2.63q-10.87-1.42-21.88-3.11T433.22,764q-11.12-2-22.32-4.37t-22.44-5.15q-11.24-2.78-22.48-6t-22.46-7q-11.22-3.74-22.37-8t-22.22-9.18q-11.06-4.89-22-10.42-5.46-2.77-10.89-5.71t-10.82-6.08q-5.38-3.12-10.72-6.41t-10.62-6.76q-5.28-3.48-10.51-7.16ZM554.32,819.09a79.59,79.59,0,1,1-50.1,100.81A79.59,79.59,0,0,1,554.32,819.09Z"/></clipPath></defs><title>final</title><g id="layer1"><path id="path5250" class="cls-1" d="M554.32,819.09a79.59,79.59,0,1,1-50.1,100.81A79.59,79.59,0,0,1,554.32,819.09Z"/><path id="path4550" class="cls-2" d="M573.08,223.26C492.39,209,422.81,221,417.68,250h0l-5.28,29.82c-2.18,12.26,7.68,26.23,27.82,39.51L433.37,358,406.8,508.08C271.44,529.38,166.59,627.72,144,754.5c-29.61,167.29,91.82,328.62,271.23,360.33h0c179.41,31.71,348.85-78.2,378.46-245.49h0C816,742.57,751.25,614.34,631.48,548l26.6-150.27L664.93,359c23.43-5.57,37.46-15.31,39.68-27.54l5.28-29.82c5.14-29-56.12-64.09-136.81-78.36h0Zm-3.18,18c61.18,10.81,108,35.05,104.65,54.14h0c-3.38,19.09-55.71,25.79-116.88,15h0c-61.18-10.81-108-35.05-104.65-54.14h0c3.38-19.09,55.71-25.79,116.88-15h0ZM467.45,333.9c23.36,10.48,51.9,19,81.75,24.26s59.57,7.09,85.12,5.26c-12.1,69.13-20.68,134.67-31,199.41,0,0,50.37,30.52,71,50,87.51,76,117.24,201.57,75.51,303.32-40.62,109.4-163.11,182.07-286.75,176.32-131.62-2.11-253.2-98.16-284.81-217.35-40.28-132.5,44.55-281,179.82-326.76,14-6.16,35.25-11.52,51.14-15,12.26,15.75,48.61,31.22,91,38.74l6,1,3.36-19q-3-.46-6-1c-28.51-5.07-55-13.87-72.85-24.24,13.17-60.83,25-133.17,36.57-194.41Z"/><path id="path4742-2" class="cls-2" d="M562.4,630.31a49.46,49.46,0,1,0,.07,0ZM664,710.38a28.9,28.9,0,1,0,36.62,18.19A28.9,28.9,0,0,0,664,710.38h0ZM554.32,819.09a79.59,79.59,0,1,1-50.1,100.81A79.59,79.59,0,0,1,554.32,819.09Z"/><path id="path5252" class="cls-1" d="M221.38,680.27A211.62,211.62,0,0,0,194.32,743c-32.2,113.81,31.26,247.25,149.52,300.56,105.16,50.69,240.61,37,323.3-38.29a245.43,245.43,0,0,0,84.59-166.8c-0.65-1.56-1.34-3.07-2.11-4.53s-1.68-3-2.61-4.47a48.22,48.22,0,0,0-3-4.19c-1.07-1.35-2.18-2.65-3.36-3.91s-2.42-2.47-3.73-3.64-2.66-2.3-4.08-3.39-2.89-2.14-4.43-3.15-3.12-2-4.77-2.92-3.34-1.83-5.09-2.7a120.33,120.33,0,0,0-11.14-4.79q-5.89-2.2-12.35-4.06t-13.5-3.42q-7-1.56-14.57-2.88T651.41,788q-8-1.11-16.5-2.07c-11.31-1.29-23.2-2.4-35.57-3.46s-25.24-2.08-38.51-3.17-26.92-2.26-40.89-3.63q-10.48-1-21.17-2.22t-21.55-2.63q-10.87-1.42-21.88-3.11T433.22,764q-11.12-2-22.32-4.37t-22.44-5.15q-11.24-2.78-22.48-6t-22.46-7q-11.22-3.74-22.37-8t-22.22-9.18q-11.06-4.89-22-10.42-5.46-2.77-10.89-5.71t-10.82-6.08q-5.38-3.12-10.72-6.41t-10.62-6.76q-5.28-3.48-10.51-7.16ZM554.32,819.09a79.59,79.59,0,1,1-50.1,100.81A79.59,79.59,0,0,1,554.32,819.09Z"/></g><g class="cls-3"><g class="cls-4"><text class="cls-5" transform="translate(-23.83 683.63) rotate(8.62)">01010010100101001010010100101001</text><text class="cls-5" transform="translate(-33.41 746.87) rotate(8.62)">01001010010100101001010010100101</text><text class="cls-5" transform="translate(-43 810.12) rotate(8.62)">00101001010010100101001010010100</text><text class="cls-5" transform="translate(-52.58 873.35) rotate(8.62)">101001010010101001010010100101001</text><text class="cls-5" transform="translate(-62.16 936.59) rotate(8.62)">01001010010100101001010010100101</text><text class="cls-5" transform="translate(-71.74 999.83) rotate(8.62)">00101001010010100101001010010100</text><text class="cls-5" transform="translate(-81.32 1063.07) rotate(8.62)">101001010010100101001010010100101</text><text class="cls-5" transform="translate(-90.9 1126.31) rotate(8.62)">00101001010010100100101001010010</text><text class="cls-5" transform="translate(-100.49 1189.55) rotate(8.62)">10010100101001010010010100101001</text><text class="cls-5" transform="translate(-110.07 1252.78) rotate(8.62)">01001010010100100101001010010100</text></g></g><path id="path4742-3" class="cls-6" d="M221.38,680.27A211.62,211.62,0,0,0,194.32,743c-32.2,113.81,31.26,247.25,149.52,300.56,105.16,50.69,240.61,37,323.3-38.29a245.43,245.43,0,0,0,84.59-166.8c-0.65-1.56-1.34-3.07-2.11-4.53s-1.68-3-2.61-4.47a48.22,48.22,0,0,0-3-4.19c-1.07-1.35-2.18-2.65-3.36-3.91s-2.42-2.47-3.73-3.64-2.66-2.3-4.08-3.39-2.89-2.14-4.43-3.15-3.12-2-4.77-2.92-3.34-1.83-5.09-2.7a120.33,120.33,0,0,0-11.14-4.79q-5.89-2.2-12.35-4.06t-13.5-3.42q-7-1.56-14.57-2.88T651.41,788q-8-1.11-16.5-2.07c-11.31-1.29-23.2-2.4-35.57-3.46s-25.24-2.08-38.51-3.17-26.92-2.26-40.89-3.63q-10.48-1-21.17-2.22t-21.55-2.63q-10.87-1.42-21.88-3.11T433.22,764q-11.12-2-22.32-4.37t-22.44-5.15q-11.24-2.78-22.48-6t-22.46-7q-11.22-3.74-22.37-8t-22.22-9.18q-11.06-4.89-22-10.42-5.46-2.77-10.89-5.71t-10.82-6.08q-5.38-3.12-10.72-6.41t-10.62-6.76q-5.28-3.48-10.51-7.16ZM554.32,819.09a79.59,79.59,0,1,1-50.1,100.81A79.59,79.59,0,0,1,554.32,819.09Z"/><text class="cls-7" transform="translate(940.45 974.15)">Sou<tspan class="cls-8" x="696.79" y="0">rc</tspan><tspan x="1046.39" y="0">e F</tspan><tspan class="cls-8" x="1556.78" y="0">l</tspan><tspan x="1673.58" y="0">ask</tspan></text></svg>