<?xml version="1.0" encoding="utf-8"?>
<!-- Generator: Adobe Illustrator 19.2.0, SVG Export Plug-In . SVG Version: 6.00 Build 0)  -->
<svg version="1.1" xmlns="http://www.w3.org/2000/svg" xmlns:xlink="http://www.w3.org/1999/xlink" x="0px" y="0px"
	 viewBox="0 0 620 470" style="enable-background:new 0 0 620 470;" xml:space="preserve">
<style type="text/css">
	.st0{fill:#FFFFFF;}
	.st1{fill:#FF382E;}
	.st2{fill:#FFB8B4;}
	.st3{fill:#FF8882;}
	.st4{fill:#655F5E;}
	.st5{fill:#3F3736;}
	.st6{fill:#1C1918;}
	.st7{fill:#B2AFAF;}
	.st8{fill:#FFBC99;}
</style>
<g id="Capa_1">
	<g>
		<path class="st0" d="M140.2,322.7L188,384l47.8-61.2c-15-5.1-31.1-7.9-47.8-7.9S155.2,317.7,140.2,322.7z"/>
		<rect x="109.4" y="435.2" class="st1" width="157.2" height="19.9"/>
		<path class="st2" d="M304.1,455.1h32.3c-2.8-56.1-37.4-104.1-86.1-126.6l-71.7,91.8h95.5c4.1,0,7.5,3.3,7.5,7.5v34.8h15
			C296.6,458.4,300,455.1,304.1,455.1z"/>
		<path class="st3" d="M101.9,420.3h57.7l18.9-24.2l-52.8-67.6C76.9,351,42.4,399,39.6,455.1h32.3c4.1,0,7.5,3.3,7.5,7.5h15v-34.8
			C94.4,423.7,97.8,420.3,101.9,420.3z"/>
		<path class="st0" d="M222,128.7c-5.8,7-14.5,11.6-23.7,11.6h-20.8c-9.2,0-17.9-4.6-23.7-11.6c-22.4,12.3-36.5,35.7-36.5,61.4
			c0,38.7,31.6,70.1,70.6,70.1s70.6-31.4,70.6-70.1C258.6,164.4,244.4,141,222,128.7z M175.8,196.1c0,4.1-3.4,7.5-7.5,7.5
			c-3.6,0-6.7-2.6-7.4-6H151c-4.1,0-7.5-3.3-7.5-7.5s3.4-7.5,7.5-7.5h17.3c4.1,0,7.5,3.3,7.5,7.5V196.1z M225,197.6h-9.9
			c-0.7,3.4-3.7,6-7.4,6c-4.1,0-7.5-3.3-7.5-7.5v-6c0-4.1,3.4-7.5,7.5-7.5H225c4.1,0,7.5,3.3,7.5,7.5S229.1,197.6,225,197.6z"/>
		<path class="st1" d="M157.8,81.2l1,6.9c0,0,3.4,24.1,3.4,24.1c0.2,1.3,0.6,2.6,1.1,3.8c0,0.1,0.1,0.1,0.1,0.2
			c2.5,5.3,8.3,9.3,14.1,9.3h20.8c5.9,0,11.6-3.9,14.1-9.2c0,0,0,0,0-0.1c0-0.1,0.1-0.1,0.1-0.2c0.5-1.2,0.9-2.5,1.1-3.8l4.4-31
			c0.4-3.1-0.3-5.9-2.1-8c-1.8-2.1-4.5-3.2-7.6-3.2h-40.8c-3.1,0-5.8,1.1-7.6,3.2C158.2,75.3,157.4,78.1,157.8,81.2z"/>
		<path class="st4" d="M230.7,99.7l-2.1,14.5c0,0.3-0.1,0.7-0.2,1c27.6,14.7,45.1,43.4,45.1,74.9c0,0,0,26.5,0,26.5
			c0,4.1,3.4,7.5,7.5,7.5s7.5-3.3,7.5-7.5v-26.5C288.6,151.3,265.6,116,230.7,99.7z"/>
		<path class="st5" d="M102.4,216.6v-26.5c0-31.5,17.5-60.2,45.1-74.9c-0.1-0.3-0.1-0.7-0.2-1l-2.1-14.5
			c-35,16.3-57.9,51.6-57.9,90.4v26.5c0,4.1,3.4,7.5,7.5,7.5S102.4,220.7,102.4,216.6z"/>
		<path class="st5" d="M109.1,106.3c9.8-9.1,21.3-16.6,34-22l-0.2-1.1c-1-7.3,1-14.5,5.7-19.8c4.6-5.3,11.5-8.3,19-8.3h40.8
			c7.4,0,14.3,3,19,8.3C232,68.7,234,76,233,83.2l-0.2,1.1c12.8,5.4,24.2,12.9,34,22c0.4-3.1,0.6-6.3,0.6-9.5
			c0-43.5-35.6-78.9-79.5-78.9s-79.5,35.4-79.5,78.9C108.5,100,108.7,103.2,109.1,106.3z"/>
		<path class="st6" d="M259.7,316.5l3.5-4.5c2.5-3.3,1.9-7.9-1.3-10.5c-3.3-2.5-8-1.9-10.5,1.3l-5.8,7.5
			c-17.9-6.7-37.3-10.4-57.5-10.4s-39.6,3.7-57.5,10.4l-5.8-7.5c-2.5-3.3-7.3-3.8-10.5-1.3c-3.3,2.5-3.9,7.2-1.3,10.5l3.5,4.5
			c-54.4,26.5-91.9,82-91.9,146.1c0,4.1,3.4,7.5,7.5,7.5h40c4.1,0,7.5-3.3,7.5-7.5c0-4.1-3.4-7.5-7.5-7.5H39.6
			C42.4,399,76.9,351,125.7,328.5l52.8,67.6l-18.9,24.2h-57.7c-4.1,0-7.5,3.3-7.5,7.5v34.8c0,4.1,3.4,7.5,7.5,7.5h172.2
			c4.1,0,7.5-3.3,7.5-7.5v-34.8c0-4.1-3.4-7.5-7.5-7.5h-95.5l71.7-91.8c48.8,22.5,83.3,70.4,86.1,126.6h-32.3
			c-4.1,0-7.5,3.3-7.5,7.5c0,4.1,3.4,7.5,7.5,7.5h40c4.1,0,7.5-3.3,7.5-7.5C351.6,398.5,314.1,342.9,259.7,316.5z M188,384
			l-47.8-61.2c15-5.1,31.1-7.9,47.8-7.9s32.8,2.8,47.8,7.9L188,384z M266.6,455.1H109.4v-19.9h157.2L266.6,455.1L266.6,455.1z"/>
		<path class="st6" d="M94.9,239c7.2,0,13.6-3.4,17.7-8.6c14.5,26.6,42.8,44.8,75.3,44.8s60.9-18.1,75.3-44.8
			c4.1,5.2,10.5,8.6,17.7,8.6c12.4,0,22.5-10,22.5-22.4v-26.5c0-25.8-8.8-50.3-24-70c2-7.6,3-15.4,3-23.3C282.5,45.1,240.1,3,188,3
			S93.5,45.1,93.5,96.9c0,7.9,1,15.7,2.9,23.3c-15.2,19.7-24.1,44.1-24.1,70v26.5C72.4,229,82.5,239,94.9,239z M188,17.9
			c43.8,0,79.5,35.4,79.5,78.9c0,3.2-0.2,6.4-0.6,9.5c-9.8-9.1-21.3-16.6-34-22l0.2-1.1c1-7.3-1-14.5-5.7-19.8
			c-4.6-5.3-11.5-8.3-19-8.3h-40.8c-7.4,0-14.3,3-19,8.3c-4.6,5.3-6.7,12.5-5.7,19.8l0.2,1.1c-12.8,5.4-24.2,12.9-34,22
			c-0.4-3.1-0.6-6.3-0.6-9.5C108.5,53.3,144.2,17.9,188,17.9z M288.6,216.6c0,4.1-3.4,7.5-7.5,7.5s-7.5-3.3-7.5-7.5v-26.5
			c0-31.5-17.5-60.2-45.1-74.9c0.1-0.3,0.1-0.7,0.2-1l2.1-14.5c35,16.3,57.9,51.6,57.9,90.4V216.6z M188,260.2
			c-38.9,0-70.6-31.4-70.6-70.1c0-25.7,14.1-49.2,36.5-61.4c5.8,7,14.5,11.6,23.7,11.6h20.8c9.2,0,17.9-4.6,23.7-11.6
			c22.4,12.2,36.5,35.7,36.5,61.4C258.6,228.8,226.9,260.2,188,260.2z M87.4,216.6v-26.5c0-38.9,22.9-74.1,57.9-90.4l2.1,14.5
			c0,0.3,0.1,0.7,0.2,1c-27.6,14.7-45.1,43.4-45.1,74.9c0,0,0,26.5,0,26.5c0,4.1-3.4,7.5-7.5,7.5S87.4,220.7,87.4,216.6z M167.6,70
			h40.8c3.1,0,5.8,1.1,7.6,3.2c1.8,2.1,2.6,4.9,2.1,8l-4.4,31c-0.2,1.3-0.6,2.6-1.1,3.8c0,0.1-0.1,0.1-0.1,0.2c0,0,0,0,0,0.1
			c-2.5,5.3-8.2,9.2-14.1,9.2h-20.8c-5.9,0-11.6-3.9-14.1-9.2c0-0.1-0.1-0.2-0.1-0.2c-0.6-1.2-1-2.5-1.1-3.8l-3.4-24.1
			c0,0-1-6.9-1-6.9c-0.4-3.1,0.3-5.9,2.1-8C161.8,71.1,164.5,70,167.6,70z"/>
		<path class="st6" d="M168.3,182.7H151c-4.1,0-7.5,3.3-7.5,7.5s3.4,7.5,7.5,7.5h9.9c0.7,3.4,3.7,6,7.4,6c4.1,0,7.5-3.3,7.5-7.5v-6
			C175.8,186,172.4,182.7,168.3,182.7z"/>
		<path class="st6" d="M225,182.7h-17.3c-4.1,0-7.5,3.3-7.5,7.5v6c0,4.1,3.4,7.5,7.5,7.5c3.6,0,6.7-2.6,7.3-6h9.9
			c4.1,0,7.5-3.3,7.5-7.5S229.1,182.7,225,182.7z"/>
	</g>
</g>
<g id="Layer_2">
	<g>
		<path class="st7" d="M559.5,314.6h15V16.3c-8.7,3.1-15,11.4-15,21.2V314.6z"/>
		<rect x="552.8" y="329.6" class="st1" width="28.3" height="125.4"/>
		<path class="st4" d="M519.6,376.6c-3.3,2.3-7.9,1.6-10.3-1.7c-15.1-20.6-35.1-36.8-57.8-47.3L352.7,455h162.7
			c4.1,0,7.5,3.4,7.5,7.5h15v-47.9C533.5,401,527.3,388.3,519.6,376.6z"/>
		<path class="st5" d="M333.7,455l46-59.3l-52.8-68.1c-48.8,22.6-83.3,70.9-86.1,127.4H333.7z"/>
		<path class="st8" d="M322.4,210.8h133.7c2.4-7.1,3.7-14.6,3.7-22.5s-1.3-15.4-3.7-22.5H322.4c-2.4,7.1-3.7,14.6-3.7,22.5
			S320,203.8,322.4,210.8z M401.4,188.3c0-4.1,3.4-7.5,7.5-7.5h17.3c4.1,0,7.5,3.4,7.5,7.5s-3.4,7.5-7.5,7.5h-9.9
			c-0.7,3.4-3.7,6-7.4,6c-4.1,0-7.5-3.4-7.5-7.5V188.3z M352.2,180.8h17.3c4.1,0,7.5,3.4,7.5,7.5v6c0,4.1-3.4,7.5-7.5,7.5
			c-3.6,0-6.7-2.6-7.4-6h-9.9c-4.1,0-7.5-3.4-7.5-7.5S348.1,180.8,352.2,180.8z"/>
		<path class="st5" d="M329.5,225.8c12.5,19.8,34.6,33.1,59.7,33.1s47.2-13.2,59.7-33.1H329.5z"/>
		<path class="st5" d="M329.5,150.8h119.4c-12.5-19.8-34.6-33.1-59.7-33.1S342,131,329.5,150.8z"/>
		<path class="st6" d="M598.7,314.6h-9.2V7.5c0-4.1-3.4-7.5-7.5-7.5c-20.7,0-37.5,16.8-37.5,37.5v277.1h-9.2c-4.1,0-7.5,3.4-7.5,7.5
			s3.4,7.5,7.5,7.5h2.5v132.9c0,4.1,3.4,7.5,7.5,7.5h43.3c4.1,0,7.5-3.4,7.5-7.5V329.6h2.5c4.1,0,7.5-3.4,7.5-7.5
			S602.8,314.6,598.7,314.6z M574.5,16.3v298.3h-15V37.5C559.5,27.7,565.8,19.4,574.5,16.3z M552.8,329.6h28.3V455h-28.3V329.6z"/>
		<path class="st6" d="M515.3,455H352.7l98.8-127.3c22.7,10.5,42.7,26.6,57.8,47.3c2.4,3.3,7,4,10.3,1.7c0,0,0.1-0.1,0.1-0.1
			c3.3-2.4,4.1-7.1,1.6-10.5c-14.9-20.4-34.5-37.3-56.9-48.8c-3.9-2-7.9-3.9-11.9-5.6c-0.3-0.1-0.6-0.3-0.9-0.4
			c-19.7-8.1-41.1-12.4-62.5-12.4c-22,0-43,4.4-62.1,12.3c-0.5,0.1-0.9,0.3-1.4,0.6c-58.8,24.8-100.1,83.1-100.1,150.8
			c0,4.1,3.4,7.5,7.5,7.5h282.2c4.1,0,7.5-3.4,7.5-7.5S519.5,455,515.3,455z M326.9,327.6l52.8,68.1l-46,59.3h-92.9
			C243.6,398.5,278.1,350.2,326.9,327.6z"/>
		<path class="st6" d="M303.7,188.3c0,11.4,2.3,22.2,6.3,32.2c0.1,0.4,0.3,0.7,0.4,1.1c13,30.7,43.4,52.3,78.8,52.3
			s65.8-21.6,78.8-52.3c0.2-0.3,0.3-0.7,0.4-1.1c4-9.9,6.3-20.8,6.3-32.2c0-11.4-2.3-22.2-6.3-32.2c-0.1-0.4-0.3-0.7-0.4-1.1
			c-13-30.7-43.4-52.3-78.8-52.3c-35.4,0-65.8,21.6-78.8,52.3c-0.2,0.3-0.3,0.7-0.4,1.1C305.9,166.1,303.7,177,303.7,188.3z
			 M448.9,150.8H329.5c12.5-19.8,34.6-33.1,59.7-33.1S436.4,131,448.9,150.8z M389.2,258.9c-25.1,0-47.2-13.2-59.7-33.1h119.4
			C436.4,245.7,414.3,258.9,389.2,258.9z M456.1,165.8c2.4,7.1,3.7,14.6,3.7,22.5s-1.3,15.4-3.7,22.5H322.4
			c-2.4-7.1-3.7-14.6-3.7-22.5s1.3-15.4,3.7-22.5H456.1z"/>
		<path class="st6" d="M352.2,195.8h9.9c0.7,3.4,3.7,6,7.4,6c4.1,0,7.5-3.4,7.5-7.5v-6c0-4.1-3.4-7.5-7.5-7.5h-17.3
			c-4.1,0-7.5,3.4-7.5,7.5S348.1,195.8,352.2,195.8z"/>
		<path class="st6" d="M408.9,201.8c3.6,0,6.7-2.6,7.4-6h9.9c4.1,0,7.5-3.4,7.5-7.5s-3.4-7.5-7.5-7.5h-17.3c-4.1,0-7.5,3.4-7.5,7.5
			v6C401.4,198.5,404.8,201.8,408.9,201.8z"/>
	</g>
</g>
</svg>
