<?xml version="1.0" encoding="iso-8859-1"?>
<!-- Generator: Adobe Illustrator 19.0.0, SVG Export Plug-In . SVG Version: 6.00 Build 0)  -->
<svg version="1.1" id="Capa_1" xmlns="http://www.w3.org/2000/svg" xmlns:xlink="http://www.w3.org/1999/xlink" x="0px" y="0px"
	 viewBox="0 0 470 470" style="enable-background:new 0 0 470 470;" xml:space="preserve">
<g>
	<rect x="58.193" y="45" style="fill:#FFD572;" width="15" height="182.5"/>
	<rect x="88.193" y="45" style="fill:#FFC743;" width="15" height="182.5"/>
	<rect x="118.193" y="45" style="fill:#FFD572;" width="15" height="182.5"/>
	<path style="fill:#D19884;" d="M417.5,75H148.193v15H447.5c4.136,0,7.5-3.364,7.5-7.5s-3.364-7.5-7.5-7.5
		c-4.143,0-7.5-3.357-7.5-7.5h-15C425,71.643,421.643,75,417.5,75z"/>
	<path style="fill:#D19884;" d="M43.193,90V75H22.5c-4.136,0-7.5,3.364-7.5,7.5s3.364,7.5,7.5,7.5H43.193z"/>
	<path style="fill:#FFBC99;" d="M447.5,30c4.136,0,7.5-3.364,7.5-7.5s-3.364-7.5-7.5-7.5h-425c-4.136,0-7.5,3.364-7.5,7.5
		s3.364,7.5,7.5,7.5H447.5z"/>
	<path style="fill:#19ABBF;" d="M235,455c118.799,0,215.906-94.65,219.874-212.5H15.126C19.094,360.35,116.202,455,235,455z
		 M122.27,369.25c4.146,0,7.504,3.358,7.504,7.5c0,4.142-3.358,7.5-7.5,7.5c-4.144,0-7.504-3.36-7.504-7.5
		S118.13,369.25,122.27,369.25z M92.27,339.25c4.146,0,7.504,3.358,7.504,7.5c0,4.142-3.358,7.5-7.5,7.5
		c-4.144,0-7.504-3.36-7.504-7.5S88.13,339.25,92.27,339.25z"/>
	<circle style="fill:#1C1918;" cx="122.274" cy="376.75" r="7.5"/>
	<circle style="fill:#1C1918;" cx="92.274" cy="346.75" r="7.5"/>
	<path style="fill:#1C1918;" d="M447.5,105c12.406,0,22.5-10.094,22.5-22.5S459.906,60,447.5,60c-4.143,0-7.5,3.357-7.5,7.5
		s3.357,7.5,7.5,7.5c4.136,0,7.5,3.364,7.5,7.5s-3.364,7.5-7.5,7.5H148.193V75H417.5c4.143,0,7.5-3.357,7.5-7.5s-3.357-7.5-7.5-7.5
		H148.193V45H447.5c12.406,0,22.5-10.094,22.5-22.5S459.906,0,447.5,0h-425C10.093,0,0,10.094,0,22.5S10.093,45,22.5,45h20.693v15
		H22.5C10.093,60,0,70.094,0,82.5S10.093,105,22.5,105h20.693v122.5H7.5c-4.142,0-7.5,3.357-7.5,7.5
		c0,62.771,24.444,121.784,68.83,166.17c24.032,24.032,52.359,42.205,83.242,53.83H147.5c-4.142,0-7.5,3.357-7.5,7.5
		s3.358,7.5,7.5,7.5h175c4.143,0,7.5-3.357,7.5-7.5s-3.357-7.5-7.5-7.5h-4.573c30.884-11.625,59.21-29.798,83.243-53.83
		C445.556,356.784,470,297.771,470,235c0-4.143-3.357-7.5-7.5-7.5H148.193V105H447.5z M15,82.5c0-4.136,3.364-7.5,7.5-7.5h20.693v15
		H22.5C18.364,90,15,86.636,15,82.5z M15,22.5c0-4.136,3.364-7.5,7.5-7.5h425c4.136,0,7.5,3.364,7.5,7.5s-3.364,7.5-7.5,7.5h-425
		C18.364,30,15,26.636,15,22.5z M103.193,45v182.5h-15V45H103.193z M58.193,45h15v182.5h-15V45z M454.874,242.5
		C450.906,360.35,353.799,455,235,455c-118.798,0-215.906-94.65-219.874-212.5H454.874z M118.193,227.5V45h15v182.5H118.193z"/>
</g>
<g>
</g>
<g>
</g>
<g>
</g>
<g>
</g>
<g>
</g>
<g>
</g>
<g>
</g>
<g>
</g>
<g>
</g>
<g>
</g>
<g>
</g>
<g>
</g>
<g>
</g>
<g>
</g>
<g>
</g>
</svg>
